<?xml version="1.0" encoding="UTF-8"?>
<svg id="Layer_1" data-name="Layer 1" xmlns="http://www.w3.org/2000/svg" viewBox="0 0 400 400">
  <path d="M211.84,295.04l-69.26-199.6h-17.41l-70.46,199.6h-24.65v5.22h59.08v-5.22h-28.4l19.99-57.07h64.4l18.49,57.07h-23.44v5.22h92.3v-5.22h-20.63ZM82.56,232.75l31.63-90.29,29.25,90.29h-60.88Z"/>
  <path d="M369.94,95.45v5.22h-26.79v150.17c-2.5,6.43-5.52,12.82-9.04,19.16-3.53,6.34-7.75,12.12-12.66,17.35-4.91,5.22-10.7,9.4-17.35,12.53-6.65,3.12-14.4,4.69-23.24,4.69s-17.17-1.54-24.18-4.62c-7.01-3.08-12.51-7.3-16.48-12.66-3.98-5.36-5.96-11.39-5.96-18.08,0-5.09,1.12-9.51,3.35-13.26,2.23-3.75,5.18-6.65,8.84-8.71,3.66-2.05,7.64-3.08,11.92-3.08,3.75,0,7.46.89,11.12,2.68,3.66,1.79,6.7,4.42,9.11,7.9,2.41,3.48,3.62,7.73,3.62,12.73s-1.21,9.06-3.62,12.46c-2.41,3.39-5.52,5.96-9.31,7.7-3.8,1.74-7.84,2.52-12.12,2.34-2.41-.18-4.69-1.14-6.83-2.88-2.14-1.74-3.53-3.82-4.15-6.23,1.43,3.66,3.68,6.86,6.76,9.58,3.08,2.73,6.68,4.8,10.78,6.23,4.11,1.43,8.39,2.14,12.86,2.14,6.97,0,12.26-1.85,15.87-5.56,3.62-3.71,6.07-9.49,7.37-17.35,1.29-7.86,1.94-17.99,1.94-30.41V100.67h-34.83v-5.22h103.02Z"/>
  <path d="M278.02,139.03c-3.69-2.85-8.41-3.06-13.64-.58-7.86,3.71-13.64,12.28-19.23,20.57-2.01,2.98-3.93,5.82-5.87,8.33-7.95-8.97-13.21-19.69-14.92-30.44,10.53-6.88,16.83-14.44,19.26-23.07,1.82-6.47,1.13-14.29-4.51-17.19-6.21-3.2-13.48.5-17.94,5.59-6.94,7.92-8.93,19.54-5.94,34.55-1.41.9-2.87,1.78-4.4,2.71-9.43,5.72-20.13,12.21-21.47,24.1-1.31,11.6,4.96,20.92,15.98,23.74,10.49,2.68,21.59-.37,30.64-8.38,7.22,6.18,15.35,9.39,23.55,9.39,2.66,0,5.32-.34,7.97-1.02,6.62-1.7,12.19-7.89,12.89-10.55.31-1.19-.17-1.87-.48-2.17-.4-.38-1.13-.76-2.38-.38-1.63.49-2.61,1.42-3.56,2.31-1.53,1.44-3.12,2.94-8.35,3.1-7.63.24-15.19-2.69-22.53-8.7l12.07-16.26c3.2-4.3,6.85-7.1,11.15-8.53,6.04-2.02,11.12,2.29,13.61,5.03l1.37,1.51.98-1.79c2.27-4.16-1.12-9.44-4.25-11.87ZM226.2,104.54c1.2-.88,3.17-1.47,4.82-1.47.93,0,1.76.19,2.3.62,3.13,2.48,3.65,6.43,1.73,13.21-1.82,6.44-6.74,11.03-12.08,14.95-2.1-8.35-2.45-23.16,3.23-27.31ZM214.07,180.1c-10.31-1.85-15.92-9.48-14.3-19.44,1.33-8.17,8.04-12.73,14.53-17.14.53-.36,1.07-.72,1.59-1.09.5,1.47.96,2.88,1.41,4.25,3.45,10.47,6.21,18.81,14.77,28.4-4.88,4.24-11.65,6.15-18.01,5.01Z"/>
</svg>