<?xml version="1.0" encoding="UTF-8"?>
<svg id="Layer_1" data-name="Layer 1" xmlns="http://www.w3.org/2000/svg" viewBox="0 0 400 400">
  <path d="M205.33,187.33c10.49,2.68,21.59-.37,30.64-8.38,7.22,6.18,15.34,9.39,23.55,9.39,2.66,0,5.32-.34,7.97-1.02,6.62-1.7,12.19-7.89,12.89-10.55.31-1.19-.17-1.87-.48-2.17-.4-.38-1.13-.76-2.38-.38-1.63.49-2.61,1.42-3.56,2.31-1.53,1.44-3.12,2.94-8.35,3.1-7.63.24-15.19-2.69-22.53-8.7l12.07-16.26c3.2-4.3,6.85-7.1,11.15-8.53,6.04-2.02,11.12,2.29,13.61,5.03l1.37,1.51.98-1.79c2.27-4.16-1.12-9.44-4.25-11.87-3.69-2.85-8.41-3.06-13.64-.58-7.86,3.71-13.64,12.28-19.23,20.57-2.01,2.98-3.93,5.82-5.87,8.33-7.95-8.97-13.21-19.69-14.92-30.44,10.53-6.88,16.83-14.44,19.26-23.07,1.82-6.47,1.13-14.29-4.51-17.19-6.21-3.2-13.48.5-17.94,5.59-6.94,7.92-8.93,19.54-5.94,34.55-1.41.9-2.87,1.78-4.4,2.71-9.43,5.72-20.13,12.21-21.47,24.1-1.31,11.6,4.96,20.92,15.98,23.74ZM226.2,104.54c1.2-.88,3.17-1.47,4.82-1.47.93,0,1.76.19,2.3.62,3.13,2.48,3.65,6.43,1.73,13.21-1.82,6.44-6.74,11.03-12.08,14.95-2.1-8.35-2.45-23.16,3.23-27.31ZM199.77,160.65c1.33-8.17,8.04-12.73,14.53-17.14.53-.36,1.07-.72,1.59-1.09.5,1.47.96,2.88,1.41,4.25,3.45,10.47,6.21,18.81,14.77,28.4-4.88,4.24-11.65,6.15-18.01,5.01-10.31-1.85-15.92-9.48-14.3-19.44Z"/>
  <path d="M28.42,28.42v343.16h343.16V28.42H28.42ZM366.58,95.45h-99.66v5.22h34.83v144.81c0,12.41-.65,22.55-1.94,30.41-1.3,7.86-3.75,13.64-7.37,17.35-3.62,3.71-8.91,5.56-15.87,5.56-4.47,0-8.75-.72-12.86-2.14-4.11-1.43-7.7-3.5-10.78-6.23-1.81-1.6-3.33-3.37-4.57-5.29.56.69,1.21,1.34,1.95,1.94,2.14,1.74,4.42,2.7,6.83,2.88,4.29.18,8.33-.6,12.12-2.34,3.79-1.74,6.9-4.31,9.31-7.7,2.41-3.39,3.62-7.55,3.62-12.46s-1.21-9.24-3.62-12.73c-2.41-3.48-5.45-6.12-9.11-7.9-3.66-1.79-7.37-2.68-11.12-2.68-4.29,0-8.26,1.03-11.92,3.08-3.66,2.06-6.61,4.96-8.84,8.71-2.23,3.75-3.35,8.17-3.35,13.26,0,6.7,1.99,12.73,5.96,18.08,3.97,5.36,9.46,9.58,16.48,12.66,7.01,3.08,15.07,4.62,24.18,4.62s16.59-1.56,23.24-4.69c6.65-3.13,12.44-7.3,17.35-12.53,4.91-5.22,9.13-11.01,12.66-17.35,3.53-6.34,6.54-12.73,9.04-19.16V100.67h23.43v265.91H33.42v-66.31h55.72v-5.22h-28.4l19.99-57.07h64.4l18.49,57.07h-23.44v5.22h92.3v-5.22h-20.63l-69.26-199.6h-17.41l-70.46,199.6h-21.29V33.42h333.16v62.03ZM82.56,232.75l31.63-90.29,29.25,90.29h-60.88Z"/>
</svg>